<?xml version="1.0" encoding="utf-8"?>
<!-- Uploaded to: SVG Repo, www.svgrepo.com, Generator: SVG Repo Mixer Tools -->
<svg width="800px" height="800px" viewBox="0 0 1024 1024" class="icon"  version="1.1" xmlns="http://www.w3.org/2000/svg"><path d="M533.333333 277.333333m-149.333333 0a149.333333 149.333333 0 1 0 298.666667 0 149.333333 149.333333 0 1 0-298.666667 0Z" fill="#4CAF50" /><path d="M298.666667 469.333333a85.333333 85.333333 0 1 1-0.042667 170.709334A85.333333 85.333333 0 0 1 298.666667 469.333333" fill="#FFB74D" /><path d="M426.666667 746.666667H170.666667a21.333333 21.333333 0 0 1-21.333334-21.333334v-64a21.333333 21.333333 0 0 1 21.333334-21.333333h256a21.333333 21.333333 0 0 1 21.333333 21.333333v64a21.333333 21.333333 0 0 1-21.333333 21.333334z" fill="#E1BEE7" /><path d="M917.333333 725.333333H426.666667a21.333333 21.333333 0 0 1-21.333334-21.333333v-192h476.096C914.602667 512 938.666667 536.192 938.666667 569.514667V704a21.333333 21.333333 0 0 1-21.333334 21.333333z" fill="#9C27B0" /><path d="M192 896H85.333333V384h106.666667v320h746.666667v192h-106.666667v-85.333333H192v85.333333z" fill="#FF9800" /><path d="M512 234.666667h42.666667v149.333333h-42.666667z" fill="#FFFFFF" /><path d="M533.333333 192m-21.333333 0a21.333333 21.333333 0 1 0 42.666667 0 21.333333 21.333333 0 1 0-42.666667 0Z" fill="#FFFFFF" /></svg>